<mxfile host="app.diagrams.net" agent="Mozilla/5.0 (Macintosh; Intel Mac OS X 10_15_7) AppleWebKit/537.36 (KHTML, like Gecko) Chrome/137.0.0.0 Safari/537.36" version="27.2.0">
  <diagram name="第 1 页" id="ZiWaesoK8VaTvlsWCHF2">
    <mxGraphModel dx="1174" dy="790" grid="1" gridSize="10" guides="1" tooltips="1" connect="1" arrows="1" fold="1" page="1" pageScale="1" pageWidth="827" pageHeight="1169" math="0" shadow="0">
      <root>
        <mxCell id="0" />
        <mxCell id="1" parent="0" />
        <mxCell id="uRRip9tCqFr2oxA-X4nn-1" value="Purchase" style="swimlane;fontStyle=1;align=center;verticalAlign=top;childLayout=stackLayout;horizontal=1;startSize=26;horizontalStack=0;resizeParent=1;resizeParentMax=0;resizeLast=0;collapsible=1;marginBottom=0;whiteSpace=wrap;html=1;" vertex="1" parent="1">
          <mxGeometry x="160" y="340" width="210" height="80" as="geometry" />
        </mxCell>
        <mxCell id="uRRip9tCqFr2oxA-X4nn-3" value="" style="line;strokeWidth=1;fillColor=none;align=left;verticalAlign=middle;spacingTop=-1;spacingLeft=3;spacingRight=3;rotatable=0;labelPosition=right;points=[];portConstraint=eastwest;strokeColor=inherit;" vertex="1" parent="uRRip9tCqFr2oxA-X4nn-1">
          <mxGeometry y="26" width="210" height="8" as="geometry" />
        </mxCell>
        <mxCell id="uRRip9tCqFr2oxA-X4nn-4" value="+ buyIBMComputer(int number): void&lt;div&gt;+ refuseBuyIBM(): void&lt;/div&gt;" style="text;strokeColor=none;fillColor=none;align=left;verticalAlign=top;spacingLeft=4;spacingRight=4;overflow=hidden;rotatable=0;points=[[0,0.5],[1,0.5]];portConstraint=eastwest;whiteSpace=wrap;html=1;" vertex="1" parent="uRRip9tCqFr2oxA-X4nn-1">
          <mxGeometry y="34" width="210" height="46" as="geometry" />
        </mxCell>
        <mxCell id="uRRip9tCqFr2oxA-X4nn-6" value="Sale" style="swimlane;fontStyle=1;align=center;verticalAlign=top;childLayout=stackLayout;horizontal=1;startSize=26;horizontalStack=0;resizeParent=1;resizeParentMax=0;resizeLast=0;collapsible=1;marginBottom=0;whiteSpace=wrap;html=1;" vertex="1" parent="1">
          <mxGeometry x="460" y="340" width="210" height="90" as="geometry" />
        </mxCell>
        <mxCell id="uRRip9tCqFr2oxA-X4nn-7" value="" style="line;strokeWidth=1;fillColor=none;align=left;verticalAlign=middle;spacingTop=-1;spacingLeft=3;spacingRight=3;rotatable=0;labelPosition=right;points=[];portConstraint=eastwest;strokeColor=inherit;" vertex="1" parent="uRRip9tCqFr2oxA-X4nn-6">
          <mxGeometry y="26" width="210" height="8" as="geometry" />
        </mxCell>
        <mxCell id="uRRip9tCqFr2oxA-X4nn-8" value="+ sellIBMComputer(int number): void&lt;div&gt;+ getSaleStatus(): int&lt;/div&gt;&lt;div&gt;+ offSale(): void&lt;/div&gt;" style="text;strokeColor=none;fillColor=none;align=left;verticalAlign=top;spacingLeft=4;spacingRight=4;overflow=hidden;rotatable=0;points=[[0,0.5],[1,0.5]];portConstraint=eastwest;whiteSpace=wrap;html=1;" vertex="1" parent="uRRip9tCqFr2oxA-X4nn-6">
          <mxGeometry y="34" width="210" height="56" as="geometry" />
        </mxCell>
        <mxCell id="uRRip9tCqFr2oxA-X4nn-9" value="Stock" style="swimlane;fontStyle=1;align=center;verticalAlign=top;childLayout=stackLayout;horizontal=1;startSize=26;horizontalStack=0;resizeParent=1;resizeParentMax=0;resizeLast=0;collapsible=1;marginBottom=0;whiteSpace=wrap;html=1;" vertex="1" parent="1">
          <mxGeometry x="309" y="505" width="250" height="130" as="geometry" />
        </mxCell>
        <mxCell id="uRRip9tCqFr2oxA-X4nn-15" value="- static int COMPUTER_NUMBER = 100" style="text;html=1;align=left;verticalAlign=top;resizable=0;points=[];autosize=1;strokeColor=none;fillColor=none;" vertex="1" parent="uRRip9tCqFr2oxA-X4nn-9">
          <mxGeometry y="26" width="250" height="30" as="geometry" />
        </mxCell>
        <mxCell id="uRRip9tCqFr2oxA-X4nn-10" value="" style="line;strokeWidth=1;fillColor=none;align=left;verticalAlign=middle;spacingTop=-1;spacingLeft=3;spacingRight=3;rotatable=0;labelPosition=right;points=[];portConstraint=eastwest;strokeColor=inherit;" vertex="1" parent="uRRip9tCqFr2oxA-X4nn-9">
          <mxGeometry y="56" width="250" height="4" as="geometry" />
        </mxCell>
        <mxCell id="uRRip9tCqFr2oxA-X4nn-11" value="+ increace(int number): void&lt;div&gt;+ decrese(int number): void&lt;/div&gt;&lt;div&gt;+ getStockNumber(): int&lt;/div&gt;&lt;div&gt;+ clearStock(): void&lt;/div&gt;" style="text;strokeColor=none;fillColor=none;align=left;verticalAlign=top;spacingLeft=4;spacingRight=4;overflow=hidden;rotatable=0;points=[[0,0.5],[1,0.5]];portConstraint=eastwest;whiteSpace=wrap;html=1;" vertex="1" parent="uRRip9tCqFr2oxA-X4nn-9">
          <mxGeometry y="60" width="250" height="70" as="geometry" />
        </mxCell>
        <mxCell id="uRRip9tCqFr2oxA-X4nn-21" value="" style="endArrow=open;startArrow=openThin;html=1;rounded=0;exitX=1.005;exitY=0.152;exitDx=0;exitDy=0;exitPerimeter=0;startFill=0;endFill=0;" edge="1" parent="1" source="uRRip9tCqFr2oxA-X4nn-4">
          <mxGeometry width="50" height="50" relative="1" as="geometry">
            <mxPoint x="390" y="430" as="sourcePoint" />
            <mxPoint x="460" y="380" as="targetPoint" />
          </mxGeometry>
        </mxCell>
        <mxCell id="uRRip9tCqFr2oxA-X4nn-22" value="" style="endArrow=open;startArrow=openThin;html=1;rounded=0;exitX=0.833;exitY=1.065;exitDx=0;exitDy=0;exitPerimeter=0;startFill=0;endFill=0;entryX=0.104;entryY=0.008;entryDx=0;entryDy=0;entryPerimeter=0;" edge="1" parent="1" source="uRRip9tCqFr2oxA-X4nn-4" target="uRRip9tCqFr2oxA-X4nn-9">
          <mxGeometry width="50" height="50" relative="1" as="geometry">
            <mxPoint x="340" y="461" as="sourcePoint" />
            <mxPoint x="335" y="500" as="targetPoint" />
          </mxGeometry>
        </mxCell>
        <mxCell id="uRRip9tCqFr2oxA-X4nn-23" value="" style="endArrow=open;startArrow=openThin;html=1;rounded=0;startFill=0;endFill=0;entryX=0.792;entryY=0;entryDx=0;entryDy=0;entryPerimeter=0;exitX=0.229;exitY=1;exitDx=0;exitDy=0;exitPerimeter=0;" edge="1" parent="1" source="uRRip9tCqFr2oxA-X4nn-8" target="uRRip9tCqFr2oxA-X4nn-9">
          <mxGeometry width="50" height="50" relative="1" as="geometry">
            <mxPoint x="507" y="440" as="sourcePoint" />
            <mxPoint x="510" y="500" as="targetPoint" />
          </mxGeometry>
        </mxCell>
      </root>
    </mxGraphModel>
  </diagram>
</mxfile>
